<svg width="20" height="20" fill="none" viewBox="0 0 20 20" xmlns="http://www.w3.org/2000/svg"><path fill="currentColor" d="M14.167 15a1.667 1.667 0 1 1 0 3.334 1.667 1.667 0 0 1 0-3.334M.833 1.667h2.725l.784 1.666h12.325a.833.833 0 0 1 .833.834c0 .141-.042.283-.1.416l-2.983 5.392a1.68 1.68 0 0 1-1.459.858H6.75L6 12.192l-.025.1a.21.21 0 0 0 .208.208h9.65v1.667h-10A1.667 1.667 0 0 1 4.167 12.5c0-.292.075-.567.2-.8L5.5 9.658l-3-6.325H.833zm5 13.333a1.667 1.667 0 1 1 0 3.334 1.667 1.667 0 0 1 0-3.334m7.5-5.833L15.65 5H5.117l1.966 4.167z"/></svg>